<svg width="108" height="108" viewBox="0 0 108 108" fill="none" xmlns="http://www.w3.org/2000/svg">
<rect x="1" y="1" width="106" height="106" rx="53" fill="white"/>
<rect x="1" y="1" width="106" height="106" rx="53" stroke="#101828" stroke-width="2"/>
<path d="M102 53.8667C102 27.4302 80.508 6 54 6C27.492 6 6 27.4302 6 53.8667C6 53.9116 6.006 53.9536 6.006 53.9985C6.006 54.0464 6 54.0884 6 54.1333C6 80.5698 27.489 102 54 102C80.511 102 102 80.5698 102 54.1333C102 54.0884 101.994 54.0464 101.994 54.0015C101.994 53.9566 102 53.9116 102 53.8667ZM41.166 30.0697C41.166 22.9542 46.941 17.187 54.066 17.187C61.191 17.187 66.966 22.9542 66.966 30.0697V38.6561C66.966 45.7716 61.191 51.5388 54.066 51.5388C46.941 51.5388 41.166 45.7716 41.166 38.6561V30.0697ZM54 93.0121C41.277 93.0121 29.994 86.8793 22.872 77.454V70.5213C22.872 63.9571 29.841 58.6333 38.436 58.6333H69.564C78.159 58.6333 85.128 63.9541 85.128 70.5213V77.454C78.006 86.8823 66.723 93.0121 54 93.0121Z" fill="#98A2B3"/>
<path d="M85.9997 68.3333L82.6664 64.9999M73.083 77.9166L75.9033 77.6032C76.2479 77.5649 76.4202 77.5458 76.5812 77.4937C76.7241 77.4474 76.86 77.3821 76.9854 77.2994C77.1267 77.2062 77.2493 77.0836 77.4944 76.8385L88.4997 65.8333C89.4202 64.9128 89.4202 63.4204 88.4997 62.4999C87.5792 61.5795 86.0868 61.5795 85.1664 62.4999L74.1611 73.5052C73.916 73.7503 73.7934 73.8729 73.7002 74.0142C73.6175 74.1396 73.5522 74.2755 73.5059 74.4184C73.4538 74.5794 73.4347 74.7517 73.3964 75.0963L73.083 77.9166Z" stroke="#667085" stroke-width="1.66667" stroke-linecap="round" stroke-linejoin="round"/>
</svg>
