<svg width="36" height="36" viewBox="0 0 36 36" fill="none" xmlns="http://www.w3.org/2000/svg">
<rect x="2" y="2" width="32" height="32" rx="16" fill="#EEF2F6"/>
<rect x="2" y="2" width="32" height="32" rx="16" stroke="#F8FAFC" stroke-width="4"/>
<g clip-path="url(#clip0_982_2236)">
<path d="M17.9997 24.6663V11.333M14.6663 24.6663V21.333M14.6663 14.6663V11.333M21.333 24.6663V21.333M21.333 14.6663V11.333M11.333 14.6663H24.6663M11.333 21.333H24.6663M24.6663 21.4663V14.533C24.6663 13.4129 24.6663 12.8529 24.4484 12.425C24.2566 12.0487 23.9506 11.7427 23.5743 11.551C23.1465 11.333 22.5864 11.333 21.4663 11.333L14.533 11.333C13.4129 11.333 12.8529 11.333 12.425 11.551C12.0487 11.7427 11.7427 12.0487 11.551 12.425C11.333 12.8529 11.333 13.4129 11.333 14.533L11.333 21.4663C11.333 22.5864 11.333 23.1465 11.551 23.5743C11.7427 23.9506 12.0487 24.2566 12.425 24.4484C12.8529 24.6663 13.4129 24.6663 14.533 24.6663H21.4663C22.5864 24.6663 23.1465 24.6663 23.5743 24.4484C23.9506 24.2566 24.2566 23.9506 24.4484 23.5743C24.6663 23.1465 24.6663 22.5864 24.6663 21.4663Z" stroke="#121926" stroke-width="1.33333" stroke-linecap="round" stroke-linejoin="round"/>
</g>
<defs>
<clipPath id="clip0_982_2236">
<rect width="16" height="16" fill="white" transform="translate(10 10)"/>
</clipPath>
</defs>
</svg>
