<svg width="23" height="23" viewBox="0 0 23 23" fill="none" xmlns="http://www.w3.org/2000/svg">
<path d="M12.1155 1.45029C6.59533 1.27947 1.98185 5.61601 1.81104 11.1362C1.64023 16.6564 5.97677 21.2699 11.497 21.4407C17.0172 21.6115 21.6307 17.275 21.8015 11.7548C21.9723 6.23458 17.6357 1.6211 12.1155 1.45029Z" fill="white"/>
<path d="M11.6825 15.4436L11.8063 11.4455M11.93 7.44742L11.92 7.44711M1.81104 11.1362C1.98185 5.61601 6.59533 1.27947 12.1155 1.45029C17.6357 1.6211 21.9723 6.23458 21.8015 11.7548C21.6307 17.275 17.0172 21.6115 11.497 21.4407C5.97677 21.2699 1.64023 16.6564 1.81104 11.1362Z" stroke="#1E1E1E" stroke-width="2" stroke-linecap="round" stroke-linejoin="round"/>
</svg>
