<svg width="17" height="18" viewBox="0 0 17 18" fill="none" xmlns="http://www.w3.org/2000/svg">
<path d="M14.1667 6.04622C14.1667 4.69337 13.5696 3.39594 12.5069 2.43933C11.4442 1.48273 10.0029 0.945313 8.5 0.945312C6.99711 0.945313 5.55577 1.48273 4.49306 2.43933C3.43036 3.39594 2.83333 4.69337 2.83333 6.04622C2.83333 11.9973 0 13.6976 0 13.6976H17C17 13.6976 14.1667 11.9973 14.1667 6.04622Z" fill="white"/>
<path d="M10.1339 17.0982C9.96784 17.3558 9.72952 17.5697 9.44277 17.7184C9.15602 17.8671 8.83091 17.9453 8.5 17.9453C8.16909 17.9453 7.84398 17.8671 7.55723 17.7184C7.27048 17.5697 7.03215 17.3558 6.86611 17.0982" fill="white"/>
</svg>
