<svg width="67" height="66" viewBox="0 0 67 66" fill="none" xmlns="http://www.w3.org/2000/svg">
<rect x="5.5" y="5" width="56" height="56" rx="28" fill="#D1FADF"/>
<rect x="5.5" y="5" width="56" height="56" rx="28" stroke="#ECFDF3" stroke-width="10"/>
<path d="M30.0026 33.0026L32.3359 35.3359L37.5859 30.0859M30.2382 43.037C30.6205 42.9864 31.0068 43.0901 31.3114 43.3247L32.7152 44.4019C33.1792 44.7584 33.8247 44.7584 34.2874 44.4019L35.7444 43.2832C36.0166 43.0745 36.3601 42.9825 36.6997 43.0279L38.5221 43.2677C39.1015 43.3442 39.6601 43.0214 39.8844 42.4809L40.5856 40.7853C40.7165 40.4678 40.968 40.2163 41.2856 40.0854L42.981 39.3841C43.5215 39.1611 43.8442 38.6012 43.7678 38.0217L43.537 36.2653C43.4865 35.8829 43.5902 35.4966 43.8248 35.192L44.9019 33.7881C45.2584 33.3241 45.2584 32.6785 44.9019 32.2158L43.7833 30.7588C43.5746 30.4866 43.4826 30.1431 43.528 29.8034L43.7678 27.9809C43.8442 27.4015 43.5215 26.8428 42.981 26.6185L41.2856 25.9172C40.968 25.7863 40.7165 25.5348 40.5856 25.2173L39.8844 23.5218C39.6614 22.9812 39.1015 22.6584 38.5221 22.7349L36.6997 22.9747C36.3601 23.0214 36.0166 22.9294 35.7457 22.722L34.2887 21.6033C33.8247 21.2468 33.1792 21.2468 32.7165 21.6033L31.2596 22.722C30.9874 22.9294 30.6439 23.0214 30.3043 22.9773L28.4818 22.7375C27.9024 22.661 27.3438 22.9838 27.1195 23.5243L26.4196 25.2199C26.2874 25.5361 26.0359 25.7876 25.7196 25.9198L24.0242 26.6198C23.4837 26.8441 23.161 27.4028 23.2374 27.9822L23.4772 29.8047C23.5213 30.1443 23.4293 30.4879 23.2219 30.7588L22.1033 32.2158C21.7468 32.6798 21.7468 33.3254 22.1033 33.7881L23.2219 35.2451C23.4306 35.5173 23.5226 35.8609 23.4772 36.2005L23.2374 38.023C23.161 38.6024 23.4837 39.1611 24.0242 39.3854L25.7196 40.0867C26.0372 40.2176 26.2887 40.4691 26.4196 40.7866L27.1208 42.4822C27.3438 43.0227 27.9037 43.3455 28.4831 43.269L30.2382 43.037Z" stroke="#039855" stroke-width="2" stroke-linecap="round" stroke-linejoin="round"/>
</svg>
